<svg xmlns="http://www.w3.org/2000/svg" xmlns:xlink="http://www.w3.org/1999/xlink" width="500" zoomAndPan="magnify" viewBox="0 0 375 374.999991" height="500" preserveAspectRatio="xMidYMid meet" version="1.0"><defs><clipPath id="a608d5c8f5"><path d="M 112.5 112.5 L 262.5 112.5 L 262.5 262.5 L 112.5 262.5 Z M 112.5 112.5 " clip-rule="nonzero"/></clipPath></defs><path fill="#edebe5" d="M 187.460938 151.480469 C 180.34375 151.480469 173.386719 153.589844 167.46875 157.542969 C 161.554688 161.496094 156.941406 167.117188 154.21875 173.691406 C 151.496094 180.265625 150.78125 187.5 152.171875 194.480469 C 153.558594 201.460938 156.984375 207.871094 162.019531 212.902344 C 167.050781 217.933594 173.460938 221.359375 180.441406 222.75 C 187.421875 224.136719 194.65625 223.425781 201.230469 220.703125 C 207.804688 217.980469 213.421875 213.367188 217.375 207.449219 C 221.332031 201.53125 223.441406 194.578125 223.441406 187.460938 C 223.429688 177.921875 219.636719 168.773438 212.890625 162.03125 C 206.144531 155.285156 197 151.488281 187.460938 151.480469 Z M 187.460938 211.445312 C 182.714844 211.445312 178.078125 210.039062 174.132812 207.40625 C 170.1875 204.769531 167.113281 201.023438 165.296875 196.640625 C 163.484375 192.257812 163.007812 187.433594 163.933594 182.78125 C 164.859375 178.128906 167.144531 173.851562 170.5 170.5 C 173.851562 167.144531 178.128906 164.859375 182.78125 163.933594 C 187.433594 163.007812 192.257812 163.484375 196.640625 165.296875 C 201.023438 167.113281 204.769531 170.1875 207.40625 174.132812 C 210.039062 178.078125 211.445312 182.714844 211.445312 187.460938 C 211.441406 193.820312 208.910156 199.917969 204.414062 204.414062 C 199.917969 208.910156 193.820312 211.441406 187.460938 211.445312 Z M 187.460938 211.445312 " fill-opacity="1" fill-rule="nonzero"/><g clip-path="url(#a608d5c8f5)"><path fill="#edebe5" d="M 220.441406 112.5 L 154.476562 112.5 C 143.347656 112.511719 132.679688 116.9375 124.808594 124.808594 C 116.9375 132.679688 112.511719 143.347656 112.5 154.476562 L 112.5 220.441406 C 112.511719 231.570312 116.9375 242.242188 124.808594 250.109375 C 132.679688 257.980469 143.347656 262.40625 154.476562 262.421875 L 220.441406 262.421875 C 231.570312 262.40625 242.242188 257.980469 250.109375 250.109375 C 257.980469 242.242188 262.40625 231.570312 262.421875 220.441406 L 262.421875 154.476562 C 262.40625 143.347656 257.980469 132.679688 250.109375 124.808594 C 242.242188 116.9375 231.570312 112.511719 220.441406 112.5 Z M 250.425781 220.441406 C 250.417969 228.390625 247.253906 236.011719 241.632812 241.632812 C 236.011719 247.253906 228.390625 250.417969 220.441406 250.425781 L 154.476562 250.425781 C 146.527344 250.417969 138.90625 247.253906 133.285156 241.632812 C 127.664062 236.011719 124.503906 228.390625 124.492188 220.441406 L 124.492188 154.476562 C 124.503906 146.527344 127.664062 138.90625 133.285156 133.285156 C 138.90625 127.664062 146.527344 124.503906 154.476562 124.492188 L 220.441406 124.492188 C 228.390625 124.503906 236.011719 127.664062 241.632812 133.285156 C 247.253906 138.90625 250.417969 146.527344 250.425781 154.476562 Z M 250.425781 220.441406 " fill-opacity="1" fill-rule="nonzero"/></g><path fill="#edebe5" d="M 226.4375 157.476562 C 231.40625 157.476562 235.433594 153.449219 235.433594 148.480469 C 235.433594 143.511719 231.40625 139.484375 226.4375 139.484375 C 221.472656 139.484375 217.445312 143.511719 217.445312 148.480469 C 217.445312 153.449219 221.472656 157.476562 226.4375 157.476562 Z M 226.4375 157.476562 " fill-opacity="1" fill-rule="nonzero"/></svg>