<svg xmlns="http://www.w3.org/2000/svg" xmlns:xlink="http://www.w3.org/1999/xlink" width="500" zoomAndPan="magnify" viewBox="0 0 375 374.999991" height="500" preserveAspectRatio="xMidYMid meet" version="1.0"><defs><g/></defs><path stroke-linecap="butt" transform="matrix(0.75, 0, 0, 0.75, 50.748049, 159.74999)" fill="none" stroke-linejoin="miter" d="M 4.268226 29.333349 C 4.268226 45.338559 13.00781 57.067726 24.632811 57.067726 C 36.210937 57.067726 44.955729 45.338559 44.955729 29.333349 C 44.955729 13.333348 36.210937 1.604181 24.632811 1.604181 C 13.00781 1.604181 4.268226 13.333348 4.268226 29.333349 Z M 18.190102 9.286473 C 18.190102 4.218764 19.518227 2.239597 24.632811 2.239597 C 33.382812 2.239597 40.429687 13.177098 40.429687 29.333349 C 40.429687 42.6146 35.674478 52.317726 29.179686 55.416684 C 32.002603 52.692726 32.315103 47.890642 32.315103 44.4271 C 32.315103 32.484391 18.190102 20.755224 18.190102 9.286473 Z M 18.773436 3.895848 C 17.122394 6.666681 16.481769 9.817723 16.481769 13.60939 C 16.481769 26.406266 30.664061 38.619808 30.664061 48.958351 C 30.664061 53.072934 29.596353 56.427101 24.632811 56.427101 C 15.778644 56.427101 8.799477 45.494809 8.799477 29.333349 C 8.799477 17.223973 13.122394 7.734389 18.773436 3.895848 Z M 72.580731 57.067726 C 82.92969 57.067726 91.408857 50.244809 91.408857 40.859392 C 91.408857 33.072933 84.638023 27.041682 77.164065 27.041682 L 77.164065 27.473974 C 83.190107 27.838557 86.825523 34.619808 86.825523 40.911475 C 86.825523 48.697934 81.106773 56.531268 72.580731 56.531268 C 64.414064 56.531268 57.007813 50.130226 57.007813 40.807308 C 57.007813 31.729183 66.184897 28.645849 74.388023 25.703141 C 81.434898 23.203141 87.997399 20.427099 87.997399 13.333348 C 87.997399 5.338556 79.403648 1.604181 71.408856 1.604181 C 63.414064 1.604181 55.356771 5.546889 55.356771 13.125015 C 55.356771 20.375015 61.809897 24.645849 67.841147 24.645849 C 68.960939 24.645849 70.080731 24.322932 70.549481 23.786474 L 70.341147 23.463557 C 64.690105 23.463557 59.934897 18.67189 59.934897 12.645848 C 59.934897 6.942723 65.533855 2.187514 71.408856 2.187514 C 77.591148 2.187514 83.414065 6.135431 83.414065 13.385432 C 83.414065 20.104182 78.815106 23.359391 74.075523 25.234391 C 65.221355 28.697933 52.42448 29.333349 52.42448 41.651058 C 52.42448 51.197934 61.914064 57.067726 72.580731 57.067726 Z M 97.804691 52.432309 C 97.804691 54.401059 99.408858 56.000018 101.372399 56.000018 C 103.351566 56.000018 104.955733 54.401059 104.955733 52.432309 C 104.955733 50.453142 103.351566 48.854184 101.372399 48.854184 C 99.408858 48.854184 97.804691 50.453142 97.804691 52.432309 Z M 112.419275 29.333349 C 112.419275 45.338559 121.153651 57.067726 132.78386 57.067726 C 144.356777 57.067726 153.106778 45.338559 153.106778 29.333349 C 153.106778 13.333348 144.356777 1.604181 132.78386 1.604181 C 121.153651 1.604181 112.419275 13.333348 112.419275 29.333349 Z M 126.335943 9.286473 C 126.335943 4.218764 127.664068 2.239597 132.78386 2.239597 C 141.53386 2.239597 148.575528 13.177098 148.575528 29.333349 C 148.575528 42.6146 143.825527 52.317726 137.325527 55.416684 C 140.153652 52.692726 140.466152 47.890642 140.466152 44.4271 C 140.466152 32.484391 126.335943 20.755224 126.335943 9.286473 Z M 126.924484 3.895848 C 125.268234 6.666681 124.632818 9.817723 124.632818 13.60939 C 124.632818 26.406266 138.809902 38.619808 138.809902 48.958351 C 138.809902 53.072934 137.742193 56.427101 132.78386 56.427101 C 123.929693 56.427101 116.950525 45.494809 116.950525 29.333349 C 116.950525 17.223973 121.273442 7.734389 126.924484 3.895848 Z M 173.372404 56.000018 L 173.372404 55.468768 C 168.789071 55.468768 168.466154 51.677101 168.466154 41.171892 L 168.466154 1.604181 L 167.929695 1.604181 C 167.294279 3.531264 162.486987 7.578139 158.971362 8.062515 L 158.971362 8.593765 C 163.554695 8.593765 163.88282 10.406265 163.88282 16.000015 L 163.88282 41.171892 C 163.88282 51.677101 163.554695 55.468768 158.971362 55.468768 L 158.971362 56.000018 Z M 178.174488 52.432309 C 178.174488 54.401059 179.773446 56.000018 181.742196 56.000018 C 183.716155 56.000018 185.320322 54.401059 185.320322 52.432309 C 185.320322 50.453142 183.716155 48.854184 181.742196 48.854184 C 179.773446 48.854184 178.174488 50.453142 178.174488 52.432309 Z M 192.783864 49.661476 C 192.783864 53.916684 195.872406 57.067726 200.403656 57.067726 C 206.809906 57.067726 212.565115 53.333351 220.294282 53.020851 C 222.914074 52.901059 225.309908 54.192726 226.377616 56.000018 C 227.065116 55.416684 227.289074 54.505226 227.289074 53.656268 C 227.289074 50.609392 223.705741 48.473976 219.867199 48.473976 C 210.908865 48.473976 204.466156 53.656268 198.007822 53.656268 C 195.768239 53.656268 193.372405 52.744809 193.372405 49.281267 C 193.372405 36.484391 228.080741 36.380225 228.080741 16.000015 C 228.080741 11.041681 224.669283 1.604181 210.700532 1.604181 C 202.434906 1.604181 194.164072 5.875014 194.164072 14.98439 C 194.164072 21.598974 198.164072 24.802099 202.278656 24.802099 C 205.153656 24.802099 207.721365 23.255224 207.721365 20.270849 C 207.721365 19.51564 207.341156 18.82814 206.809906 18.567724 C 206.809906 20.104182 205.04949 20.687515 203.606781 20.687515 C 200.518239 20.687515 197.955739 17.500015 197.955739 13.76564 C 197.955739 8.697931 202.226573 2.239597 210.700532 2.239597 C 219.330741 2.239597 223.497407 9.338556 223.497407 16.48439 C 223.497407 31.781266 192.783864 36.744808 192.783864 49.661476 Z M 236.622408 29.333349 C 236.622408 45.338559 245.356784 57.067726 256.981785 57.067726 C 268.55991 57.067726 277.309911 45.338559 277.309911 29.333349 C 277.309911 13.333348 268.55991 1.604181 256.981785 1.604181 C 245.356784 1.604181 236.622408 13.333348 236.622408 29.333349 Z M 250.539076 9.286473 C 250.539076 4.218764 251.867201 2.239597 256.981785 2.239597 C 265.731785 2.239597 272.778661 13.177098 272.778661 29.333349 C 272.778661 42.6146 268.023452 52.317726 261.52866 55.416684 C 264.351577 52.692726 264.664077 47.890642 264.664077 44.4271 C 264.664077 32.484391 250.539076 20.755224 250.539076 9.286473 Z M 251.127618 3.895848 C 249.471367 6.666681 248.835951 9.817723 248.835951 13.60939 C 248.835951 26.406266 263.013035 38.619808 263.013035 48.958351 C 263.013035 53.072934 261.945327 56.427101 256.981785 56.427101 C 248.132826 56.427101 241.153659 45.494809 241.153659 29.333349 C 241.153659 17.223973 245.476576 7.734389 251.127618 3.895848 Z M 285.841162 49.661476 C 285.841162 53.916684 288.929703 57.067726 293.460954 57.067726 C 299.867204 57.067726 305.622413 53.333351 313.35158 53.020851 C 315.971372 52.901059 318.367205 54.192726 319.434914 56.000018 C 320.122414 55.416684 320.346372 54.505226 320.346372 53.656268 C 320.346372 50.609392 316.763039 48.473976 312.924497 48.473976 C 303.966163 48.473976 297.523454 53.656268 291.06512 53.656268 C 288.825537 53.656268 286.429703 52.744809 286.429703 49.281267 C 286.429703 36.484391 321.138039 36.380225 321.138039 16.000015 C 321.138039 11.041681 317.72658 1.604181 303.757829 1.604181 C 295.492204 1.604181 287.22137 5.875014 287.22137 14.98439 C 287.22137 21.598974 291.22137 24.802099 295.335954 24.802099 C 298.210954 24.802099 300.778663 23.255224 300.778663 20.270849 C 300.778663 19.51564 300.398454 18.82814 299.867204 18.567724 C 299.867204 20.104182 298.106787 20.687515 296.664079 20.687515 C 293.575537 20.687515 291.013037 17.500015 291.013037 13.76564 C 291.013037 8.697931 295.283871 2.239597 303.757829 2.239597 C 312.388038 2.239597 316.554705 9.338556 316.554705 16.48439 C 316.554705 31.781266 285.841162 36.744808 285.841162 49.661476 Z M 327.492206 42.77085 C 329.403664 41.651058 331.591165 40.635433 334.95054 40.635433 C 343.273457 40.635433 346.200541 45.651059 353.518249 45.703142 C 353.346374 52.796892 352.502624 55.468768 348.658874 55.468768 L 348.658874 56.000018 L 363.059917 56.000018 L 363.059917 55.468768 C 359.065125 55.468768 358.257833 52.536476 358.153666 44.697934 C 360.497416 43.578142 362.252625 41.598975 362.252625 38.984392 C 362.252625 35.036475 358.153666 36.260433 358.153666 33.70835 L 358.153666 11.630223 L 353.622416 11.630223 L 353.622416 31.729183 C 353.622416 37.015641 361.669292 34.296891 361.669292 38.723975 C 361.669292 41.223975 358.632833 42.343767 355.325541 42.343767 C 350.039082 42.343767 345.51304 37.500016 339.117207 37.500016 C 336.018248 37.500016 332.179706 38.567725 329.627623 40.322933 C 339.117207 25.651057 344.872415 17.32814 354.361999 2.671889 L 348.283874 2.671889 C 344.393249 14.98439 337.674498 26.937516 327.007831 42.77085 Z M 327.492206 42.77085 " stroke="#8b181b" stroke-width="3.999998" stroke-opacity="1" stroke-miterlimit="4"/><g fill="#ffffff" fill-opacity="1"><g transform="translate(50.748049, 201.749987)"><g><path d="M 3.199219 -20 C 3.199219 -8 9.757812 0.800781 18.480469 0.800781 C 27.160156 0.800781 33.71875 -8 33.71875 -20 C 33.71875 -31.996094 27.160156 -40.796875 18.480469 -40.796875 C 9.757812 -40.796875 3.199219 -31.996094 3.199219 -20 Z M 13.640625 -35.039062 C 13.640625 -38.835938 14.640625 -40.316406 18.480469 -40.316406 C 25.039062 -40.316406 30.316406 -32.117188 30.316406 -20 C 30.316406 -10.039062 26.757812 -2.761719 21.878906 -0.441406 C 24 -2.480469 24.238281 -6.078125 24.238281 -8.679688 C 24.238281 -17.640625 13.640625 -26.4375 13.640625 -35.039062 Z M 14.078125 -39.078125 C 12.839844 -36.996094 12.359375 -34.636719 12.359375 -31.796875 C 12.359375 -22.199219 23 -13.039062 23 -5.28125 C 23 -2.199219 22.199219 0.320312 18.480469 0.320312 C 11.839844 0.320312 6.597656 -7.878906 6.597656 -20 C 6.597656 -29.078125 9.839844 -36.199219 14.078125 -39.078125 Z M 14.078125 -39.078125 "/></g></g></g><g fill="#ffffff" fill-opacity="1"><g transform="translate(87.664375, 201.749987)"><g><path d="M 17.519531 0.800781 C 25.277344 0.800781 31.636719 -4.320312 31.636719 -11.359375 C 31.636719 -17.199219 26.558594 -21.71875 20.957031 -21.71875 L 20.957031 -21.398438 C 25.476562 -21.117188 28.199219 -16.039062 28.199219 -11.320312 C 28.199219 -5.480469 23.917969 0.398438 17.519531 0.398438 C 11.398438 0.398438 5.839844 -4.398438 5.839844 -11.398438 C 5.839844 -18.199219 12.71875 -20.519531 18.878906 -22.71875 C 24.160156 -24.597656 29.078125 -26.679688 29.078125 -31.996094 C 29.078125 -37.996094 22.636719 -40.796875 16.640625 -40.796875 C 10.640625 -40.796875 4.601562 -37.835938 4.601562 -32.15625 C 4.601562 -26.71875 9.4375 -23.519531 13.960938 -23.519531 C 14.800781 -23.519531 15.640625 -23.757812 16 -24.160156 L 15.839844 -24.398438 C 11.597656 -24.398438 8.039062 -28 8.039062 -32.519531 C 8.039062 -36.796875 12.238281 -40.359375 16.640625 -40.359375 C 21.277344 -40.359375 25.636719 -37.398438 25.636719 -31.957031 C 25.636719 -26.917969 22.199219 -24.476562 18.640625 -23.078125 C 12 -20.480469 2.398438 -20 2.398438 -10.757812 C 2.398438 -3.601562 9.519531 0.800781 17.519531 0.800781 Z M 17.519531 0.800781 "/></g></g></g><g fill="#ffffff" fill-opacity="1"><g transform="translate(121.70099, 201.749987)"><g><path d="M 2.398438 -2.679688 C 2.398438 -1.199219 3.601562 0 5.078125 0 C 6.558594 0 7.757812 -1.199219 7.757812 -2.679688 C 7.757812 -4.160156 6.558594 -5.359375 5.078125 -5.359375 C 3.601562 -5.359375 2.398438 -4.160156 2.398438 -2.679688 Z M 2.398438 -2.679688 "/></g></g></g><g fill="#ffffff" fill-opacity="1"><g transform="translate(131.859978, 201.749987)"><g><path d="M 3.199219 -20 C 3.199219 -8 9.757812 0.800781 18.480469 0.800781 C 27.160156 0.800781 33.71875 -8 33.71875 -20 C 33.71875 -31.996094 27.160156 -40.796875 18.480469 -40.796875 C 9.757812 -40.796875 3.199219 -31.996094 3.199219 -20 Z M 13.640625 -35.039062 C 13.640625 -38.835938 14.640625 -40.316406 18.480469 -40.316406 C 25.039062 -40.316406 30.316406 -32.117188 30.316406 -20 C 30.316406 -10.039062 26.757812 -2.761719 21.878906 -0.441406 C 24 -2.480469 24.238281 -6.078125 24.238281 -8.679688 C 24.238281 -17.640625 13.640625 -26.4375 13.640625 -35.039062 Z M 14.078125 -39.078125 C 12.839844 -36.996094 12.359375 -34.636719 12.359375 -31.796875 C 12.359375 -22.199219 23 -13.039062 23 -5.28125 C 23 -2.199219 22.199219 0.320312 18.480469 0.320312 C 11.839844 0.320312 6.597656 -7.878906 6.597656 -20 C 6.597656 -29.078125 9.839844 -36.199219 14.078125 -39.078125 Z M 14.078125 -39.078125 "/></g></g></g><g fill="#ffffff" fill-opacity="1"><g transform="translate(168.776304, 201.749987)"><g><path d="M 12 0 L 12 -0.398438 C 8.558594 -0.398438 8.320312 -3.238281 8.320312 -11.121094 L 8.320312 -40.796875 L 7.917969 -40.796875 C 7.441406 -39.359375 3.839844 -36.316406 1.199219 -35.957031 L 1.199219 -35.558594 C 4.640625 -35.558594 4.878906 -34.199219 4.878906 -30 L 4.878906 -11.121094 C 4.878906 -3.238281 4.640625 -0.398438 1.199219 -0.398438 L 1.199219 0 Z M 12 0 "/></g></g></g><g fill="#ffffff" fill-opacity="1"><g transform="translate(181.974991, 201.749987)"><g><path d="M 2.398438 -2.679688 C 2.398438 -1.199219 3.601562 0 5.078125 0 C 6.558594 0 7.757812 -1.199219 7.757812 -2.679688 C 7.757812 -4.160156 6.558594 -5.359375 5.078125 -5.359375 C 3.601562 -5.359375 2.398438 -4.160156 2.398438 -2.679688 Z M 2.398438 -2.679688 "/></g></g></g><g fill="#ffffff" fill-opacity="1"><g transform="translate(192.13398, 201.749987)"><g><path d="M 3.199219 -4.757812 C 3.199219 -1.558594 5.519531 0.800781 8.917969 0.800781 C 13.71875 0.800781 18.039062 -2 23.839844 -2.238281 C 25.796875 -2.320312 27.597656 -1.359375 28.398438 0 C 28.917969 -0.441406 29.078125 -1.121094 29.078125 -1.761719 C 29.078125 -4.039062 26.398438 -5.640625 23.519531 -5.640625 C 16.800781 -5.640625 11.960938 -1.761719 7.121094 -1.761719 C 5.441406 -1.761719 3.640625 -2.441406 3.640625 -5.039062 C 3.640625 -14.640625 29.679688 -14.71875 29.679688 -30 C 29.679688 -33.71875 27.117188 -40.796875 16.640625 -40.796875 C 10.4375 -40.796875 4.238281 -37.597656 4.238281 -30.757812 C 4.238281 -25.796875 7.238281 -23.398438 10.320312 -23.398438 C 12.480469 -23.398438 14.398438 -24.558594 14.398438 -26.796875 C 14.398438 -27.359375 14.117188 -27.878906 13.71875 -28.078125 C 13.71875 -26.917969 12.398438 -26.476562 11.320312 -26.476562 C 9 -26.476562 7.078125 -28.878906 7.078125 -31.679688 C 7.078125 -35.476562 10.28125 -40.316406 16.640625 -40.316406 C 23.117188 -40.316406 26.238281 -34.996094 26.238281 -29.636719 C 26.238281 -18.160156 3.199219 -14.4375 3.199219 -4.757812 Z M 3.199219 -4.757812 "/></g></g></g><g fill="#ffffff" fill-opacity="1"><g transform="translate(225.010713, 201.749987)"><g><path d="M 3.199219 -20 C 3.199219 -8 9.757812 0.800781 18.480469 0.800781 C 27.160156 0.800781 33.71875 -8 33.71875 -20 C 33.71875 -31.996094 27.160156 -40.796875 18.480469 -40.796875 C 9.757812 -40.796875 3.199219 -31.996094 3.199219 -20 Z M 13.640625 -35.039062 C 13.640625 -38.835938 14.640625 -40.316406 18.480469 -40.316406 C 25.039062 -40.316406 30.316406 -32.117188 30.316406 -20 C 30.316406 -10.039062 26.757812 -2.761719 21.878906 -0.441406 C 24 -2.480469 24.238281 -6.078125 24.238281 -8.679688 C 24.238281 -17.640625 13.640625 -26.4375 13.640625 -35.039062 Z M 14.078125 -39.078125 C 12.839844 -36.996094 12.359375 -34.636719 12.359375 -31.796875 C 12.359375 -22.199219 23 -13.039062 23 -5.28125 C 23 -2.199219 22.199219 0.320312 18.480469 0.320312 C 11.839844 0.320312 6.597656 -7.878906 6.597656 -20 C 6.597656 -29.078125 9.839844 -36.199219 14.078125 -39.078125 Z M 14.078125 -39.078125 "/></g></g></g><g fill="#ffffff" fill-opacity="1"><g transform="translate(261.92705, 201.749987)"><g><path d="M 3.199219 -4.757812 C 3.199219 -1.558594 5.519531 0.800781 8.917969 0.800781 C 13.71875 0.800781 18.039062 -2 23.839844 -2.238281 C 25.796875 -2.320312 27.597656 -1.359375 28.398438 0 C 28.917969 -0.441406 29.078125 -1.121094 29.078125 -1.761719 C 29.078125 -4.039062 26.398438 -5.640625 23.519531 -5.640625 C 16.800781 -5.640625 11.960938 -1.761719 7.121094 -1.761719 C 5.441406 -1.761719 3.640625 -2.441406 3.640625 -5.039062 C 3.640625 -14.640625 29.679688 -14.71875 29.679688 -30 C 29.679688 -33.71875 27.117188 -40.796875 16.640625 -40.796875 C 10.4375 -40.796875 4.238281 -37.597656 4.238281 -30.757812 C 4.238281 -25.796875 7.238281 -23.398438 10.320312 -23.398438 C 12.480469 -23.398438 14.398438 -24.558594 14.398438 -26.796875 C 14.398438 -27.359375 14.117188 -27.878906 13.71875 -28.078125 C 13.71875 -26.917969 12.398438 -26.476562 11.320312 -26.476562 C 9 -26.476562 7.078125 -28.878906 7.078125 -31.679688 C 7.078125 -35.476562 10.28125 -40.316406 16.640625 -40.316406 C 23.117188 -40.316406 26.238281 -34.996094 26.238281 -29.636719 C 26.238281 -18.160156 3.199219 -14.4375 3.199219 -4.757812 Z M 3.199219 -4.757812 "/></g></g></g><g fill="#ffffff" fill-opacity="1"><g transform="translate(294.803772, 201.749987)"><g><path d="M 1.558594 -9.917969 C 3 -10.757812 4.640625 -11.519531 7.160156 -11.519531 C 13.398438 -11.519531 15.597656 -7.757812 21.078125 -7.71875 C 20.957031 -2.398438 20.320312 -0.398438 17.4375 -0.398438 L 17.4375 0 L 28.238281 0 L 28.238281 -0.398438 C 25.238281 -0.398438 24.636719 -2.601562 24.558594 -8.480469 C 26.316406 -9.320312 27.636719 -10.800781 27.636719 -12.757812 C 27.636719 -15.71875 24.558594 -14.800781 24.558594 -16.71875 L 24.558594 -33.277344 L 21.160156 -33.277344 L 21.160156 -18.199219 C 21.160156 -14.238281 27.199219 -16.277344 27.199219 -12.960938 C 27.199219 -11.078125 24.917969 -10.238281 22.4375 -10.238281 C 18.480469 -10.238281 15.078125 -13.878906 10.28125 -13.878906 C 7.960938 -13.878906 5.078125 -13.078125 3.160156 -11.757812 C 10.28125 -22.757812 14.597656 -29 21.71875 -39.996094 L 17.160156 -39.996094 C 14.238281 -30.757812 9.199219 -21.796875 1.199219 -9.917969 Z M 1.558594 -9.917969 "/></g></g></g></svg>