<svg xmlns="http://www.w3.org/2000/svg" xmlns:xlink="http://www.w3.org/1999/xlink" width="500" zoomAndPan="magnify" viewBox="0 0 375 374.999991" height="500" preserveAspectRatio="xMidYMid meet" version="1.0"><defs><clipPath id="23990c65a6"><path d="M 112.5 112.59375 L 262.5 112.59375 L 262.5 262.59375 L 112.5 262.59375 Z M 112.5 112.59375 " clip-rule="nonzero"/></clipPath></defs><path fill="#edebe5" d="M 202.5625 223.441406 C 198.824219 223.441406 195.066406 222.484375 191.667969 220.515625 C 176.078125 211.484375 163.597656 199 154.566406 183.414062 C 149.632812 174.898438 151.042969 164.097656 157.992188 157.144531 C 163.578125 151.558594 172.667969 151.558594 178.253906 157.144531 C 183.789062 162.675781 183.832031 171.722656 178.351562 177.308594 L 177.253906 178.425781 C 176.679688 179.015625 176.558594 179.902344 176.957031 180.628906 C 178.445312 183.355469 180.9375 187.320312 184.347656 190.730469 C 187.757812 194.140625 191.726562 196.632812 194.453125 198.125 C 195.179688 198.523438 196.066406 198.402344 196.652344 197.824219 L 197.773438 196.730469 C 203.359375 191.25 212.40625 191.292969 217.9375 196.824219 C 223.523438 202.414062 223.523438 211.503906 217.9375 217.089844 C 213.757812 221.265625 208.1875 223.441406 202.5625 223.441406 Z M 168.125 158.363281 C 165.839844 158.363281 163.558594 159.230469 161.820312 160.96875 C 156.597656 166.191406 155.542969 174.304688 159.246094 180.703125 C 167.800781 195.460938 179.621094 207.28125 194.378906 215.832031 C 200.777344 219.539062 208.890625 218.484375 214.109375 213.261719 C 217.585938 209.785156 217.585938 204.128906 214.109375 200.652344 C 210.667969 197.207031 205.035156 197.179688 201.558594 200.589844 L 200.441406 201.6875 C 198.140625 203.945312 194.691406 204.421875 191.855469 202.871094 C 188.820312 201.210938 184.386719 198.421875 180.523438 194.558594 C 176.660156 190.691406 173.867188 186.261719 172.210938 183.222656 C 170.660156 180.390625 171.136719 176.941406 173.394531 174.636719 L 174.488281 173.519531 C 177.898438 170.042969 177.871094 164.414062 174.429688 160.96875 C 172.691406 159.230469 170.40625 158.363281 168.125 158.363281 Z M 168.125 158.363281 " fill-opacity="1" fill-rule="nonzero"/><g clip-path="url(#23990c65a6)"><path fill="#edebe5" d="M 115.378906 262.410156 C 114.613281 262.410156 113.875 262.085938 113.359375 261.503906 C 112.714844 260.78125 112.503906 259.773438 112.808594 258.855469 L 123.539062 226.371094 C 116.425781 214.675781 112.671875 201.261719 112.671875 187.5 C 112.671875 167.492188 120.464844 148.679688 134.613281 134.53125 C 148.761719 120.382812 167.570312 112.589844 187.582031 112.589844 C 207.589844 112.589844 226.402344 120.382812 240.550781 134.53125 C 254.699219 148.679688 262.492188 167.492188 262.492188 187.5 C 262.492188 207.507812 254.699219 226.320312 240.550781 240.46875 C 226.402344 254.617188 207.589844 262.410156 187.582031 262.410156 C 175.925781 262.410156 164.328125 259.664062 153.972656 254.460938 L 115.925781 262.351562 C 115.742188 262.390625 115.558594 262.410156 115.378906 262.410156 Z M 154.355469 248.914062 C 154.789062 248.914062 155.214844 249.015625 155.605469 249.21875 C 165.546875 254.378906 176.304688 257 187.582031 257 C 206.144531 257 223.597656 249.769531 236.722656 236.644531 C 249.851562 223.515625 257.078125 206.0625 257.078125 187.5 C 257.078125 168.9375 249.851562 151.484375 236.722656 138.355469 C 223.597656 125.230469 206.144531 118 187.582031 118 C 169.015625 118 151.566406 125.230469 138.4375 138.355469 C 125.3125 151.484375 118.082031 168.9375 118.082031 187.5 C 118.082031 200.671875 121.785156 213.492188 128.792969 224.574219 C 129.222656 225.257812 129.328125 226.101562 129.074219 226.871094 L 119.414062 256.101562 L 153.808594 248.96875 C 153.988281 248.933594 154.175781 248.914062 154.355469 248.914062 Z M 154.355469 248.914062 " fill-opacity="1" fill-rule="nonzero"/></g><path fill="#edebe5" d="M 187.582031 247.15625 C 171.648438 247.15625 156.667969 240.949219 145.398438 229.683594 C 134.132812 218.414062 127.925781 203.433594 127.925781 187.5 C 127.925781 171.566406 134.132812 156.585938 145.398438 145.316406 C 156.667969 134.050781 171.648438 127.84375 187.582031 127.84375 C 203.515625 127.84375 218.496094 134.050781 229.761719 145.316406 C 241.03125 156.585938 247.234375 171.566406 247.234375 187.5 C 247.234375 203.433594 241.03125 218.414062 229.761719 229.683594 C 218.496094 240.949219 203.515625 247.15625 187.582031 247.15625 Z M 187.582031 133.253906 C 157.671875 133.253906 133.335938 157.589844 133.335938 187.5 C 133.335938 217.410156 157.671875 241.746094 187.582031 241.746094 C 217.492188 241.746094 241.824219 217.410156 241.824219 187.5 C 241.824219 157.589844 217.492188 133.253906 187.582031 133.253906 Z M 187.582031 133.253906 " fill-opacity="1" fill-rule="nonzero"/></svg>